<?xml version="1.0" standalone="no"?>
<!DOCTYPE svg PUBLIC "-//W3C//DTD SVG 20010904//EN"
 "http://www.w3.org/TR/2001/REC-SVG-20010904/DTD/svg10.dtd">
<svg version="1.0" xmlns="http://www.w3.org/2000/svg"
 width="512.000000pt" height="512.000000pt" viewBox="0 0 512.000000 512.000000"
 preserveAspectRatio="xMidYMid meet">
<metadata>
Created by potrace 1.14, written by Peter Selinger 2001-2017
</metadata>
<g transform="translate(0.000000,512.000000) scale(0.100000,-0.100000)"
fill="#000000" stroke="none">
<path d="M2070 5091 c-345 -72 -620 -183 -900 -366 -648 -423 -1061 -1090
-1154 -1865 -14 -113 -15 -482 -2 -560 3 -19 8 -57 11 -84 14 -128 84 -396
150 -576 31 -84 131 -284 195 -390 137 -228 343 -469 550 -642 243 -205 623
-412 887 -484 32 -9 90 -24 128 -35 83 -23 267 -56 368 -66 143 -15 519 -8
626 12 9 1 36 6 61 10 85 14 95 16 135 27 22 5 48 12 59 14 120 23 388 123
550 206 87 44 289 167 336 205 8 6 51 40 95 74 198 155 450 440 586 664 153
251 274 555 324 810 41 208 44 247 41 555 -2 324 -7 371 -62 586 -75 300 -180
543 -341 789 -185 282 -443 544 -723 732 -286 193 -626 330 -974 394 -86 15
-154 18 -456 18 -349 0 -357 -1 -490 -28z m261 -1747 c8 -4 21 -9 29 -11 58
-8 220 -133 220 -169 0 -6 9 -19 20 -29 11 -10 20 -13 20 -8 0 18 103 118 156
151 94 59 155 75 295 76 87 1 131 -3 141 -11 8 -7 17 -11 20 -8 3 3 18 -1 34
-10 16 -8 35 -15 42 -15 6 0 12 -3 12 -8 0 -4 14 -13 30 -20 26 -12 63 -47
130 -121 25 -27 69 -126 85 -188 24 -97 27 -151 27 -648 0 -383 3 -485 14
-506 7 -15 11 -28 9 -31 -2 -2 6 -16 19 -31 39 -45 79 -55 220 -56 131 -2 159
-8 170 -37 3 -9 7 -66 7 -128 0 -153 10 -147 -226 -146 -262 2 -363 33 -465
142 -55 59 -109 181 -105 236 1 12 -2 22 -6 22 -4 0 -8 228 -9 508 0 279 -2
516 -3 527 -10 62 -50 142 -87 173 -69 57 -196 73 -280 35 -48 -21 -110 -78
-110 -100 0 -7 -5 -13 -10 -13 -6 0 -9 -3 -8 -7 0 -5 -2 -15 -5 -23 -20 -48
-25 -142 -25 -521 0 -230 -3 -433 -7 -449 -4 -17 -15 -35 -25 -40 -10 -6 -82
-10 -159 -10 -134 0 -140 1 -158 23 -17 22 -18 52 -18 455 0 238 -2 432 -5
432 -3 0 -6 19 -7 42 -3 44 -31 110 -65 153 -37 47 -114 78 -193 79 -42 0 -80
-6 -95 -14 -14 -8 -28 -14 -33 -15 -4 0 -25 -17 -46 -38 -37 -35 -69 -89 -76
-126 -2 -9 -4 -16 -5 -16 -7 0 -10 -114 -11 -490 -1 -419 -4 -458 -33 -477 -6
-4 -77 -8 -158 -7 -141 0 -148 1 -165 23 -17 21 -18 67 -18 709 0 804 -13 726
123 730 51 2 82 -1 83 -8 0 -6 2 -6 5 1 3 6 26 9 57 7 74 -4 98 -42 87 -137
-1 -15 11 -8 52 30 30 27 68 56 84 64 16 8 32 19 36 25 4 5 8 6 8 1 0 -5 6 -4
13 1 12 9 73 29 112 36 38 7 242 0 256 -9z"/>
</g>
</svg>
